HIERARCHY
ROOT RootJoint
{
    OFFSET   0.000000   0.000000   0.000000
    CHANNELS 6 Xposition Yposition Zposition Xrotation Yrotation Zrotation
    JOINT pelvis_lowerback
    {
        OFFSET   0.000000   0.093605   0.000000
        CHANNELS 3 Xrotation Yrotation Zrotation
        JOINT lowerback_torso
        {
            OFFSET   0.000000   0.100000   0.000000
            CHANNELS 3 Xrotation Yrotation Zrotation
            JOINT torso_head
            {
                OFFSET   0.000000   0.282350   0.000000
                CHANNELS 3 Xrotation Yrotation Zrotation
                End Site
                {
                    OFFSET   0.000000   0.192650   0.000000
                }
            }
            JOINT rTorso_Clavicle
            {
                OFFSET  -0.001000   0.157500   0.000000
                CHANNELS 3 Xrotation Yrotation Zrotation
                JOINT rShoulder
                {
                    OFFSET  -0.117647   0.000000   0.000000
                    CHANNELS 3 Xrotation Yrotation Zrotation
                    JOINT rElbow
                    {
                        OFFSET  -0.245000   0.000000   0.000000
                        CHANNELS 3 Xrotation Yrotation Zrotation
                        JOINT rWrist
                        {
                            OFFSET  -0.240000   0.000000   0.000000
                            CHANNELS 3 Xrotation Yrotation Zrotation
                            End Site
                            {
                                OFFSET  -0.116353  -0.002500   0.000000
                            }
                        }
                    }
                }
            }
            JOINT lTorso_Clavicle
            {
                OFFSET   0.001000   0.157500   0.000000
                CHANNELS 3 Xrotation Yrotation Zrotation
                JOINT lShoulder
                {
                    OFFSET   0.117647   0.000000   0.000000
                    CHANNELS 3 Xrotation Yrotation Zrotation
                    JOINT lElbow
                    {
                        OFFSET   0.245000   0.000000   0.000000
                        CHANNELS 3 Xrotation Yrotation Zrotation
                        JOINT lWrist
                        {
                            OFFSET   0.240000   0.000000   0.000000
                            CHANNELS 3 Xrotation Yrotation Zrotation
                            End Site
                            {
                                OFFSET   0.116353  -0.002500   0.000000
                            }
                        }
                    }
                }
            }
        }
    }
    JOINT rHip
    {
        OFFSET  -0.100000  -0.051395   0.000000
        CHANNELS 3 Xrotation Yrotation Zrotation
        JOINT rKnee
        {
            OFFSET   0.000000  -0.410000   0.000000
            CHANNELS 3 Xrotation Yrotation Zrotation
            JOINT rAnkle
            {
                OFFSET   0.000000  -0.390000   0.000000
                CHANNELS 3 Xrotation Yrotation Zrotation
                JOINT rToeJoint
                {
                    OFFSET   0.000000  -0.050000   0.130000
                    CHANNELS 3 Xrotation Yrotation Zrotation
                    End Site
                    {
                        OFFSET  -0.010000   0.002000   0.060000
                    }
                }
            }
        }
    }
    JOINT lHip
    {
        OFFSET   0.100000  -0.051395   0.000000
        CHANNELS 3 Xrotation Yrotation Zrotation
        JOINT lKnee
        {
            OFFSET   0.000000  -0.410000   0.000000
            CHANNELS 3 Xrotation Yrotation Zrotation
            JOINT lAnkle
            {
                OFFSET   0.000000  -0.390000   0.000000
                CHANNELS 3 Xrotation Yrotation Zrotation
                JOINT lToeJoint
                {
                    OFFSET   0.000000  -0.050000   0.130000
                    CHANNELS 3 Xrotation Yrotation Zrotation
                    End Site
                    {
                        OFFSET   0.010000   0.002000   0.060000
                    }
                }
            }
        }
    }
}
MOTION
Frames: 11
Frame Time:   0.008333
 -2.376719   0.925631   3.975860   0.000000   0.000000   0.000000   0.000000   0.000000   0.000000   0.000000   0.000000   0.000000   0.000000   0.000000   0.000000   0.000000   0.000000   0.000000   0.000000   0.000000   0.000000   0.000000   0.000000   0.000000   0.000000   0.000000   0.000000   0.000000   0.000000   0.000000   0.000000   0.000000   0.000000   0.000000   0.000000   0.000000   0.000000   0.000000   0.000000   0.000000   0.000000   0.000000   0.000000   0.000000   0.000000   0.000000   0.000000   0.000000   0.000000   0.000000   0.000000   0.000000   0.000000   0.000000   0.000000   0.000000   0.000000   0.000000   0.000000   0.000000   0.000000   0.000000   0.000000
 -2.376746   0.926340   3.975237  -0.522956   0.183772  -0.117783   0.700850  -0.015901   0.114708   0.178277  -0.170736   0.038865  -0.264482   0.141018   0.111000   0.072905  -0.205067   0.441705   0.510291   0.169692   2.049734   0.018357   0.830340  -0.006925   0.247214  -0.452094  -3.021719   0.125017   0.005854  -0.655722   0.609196  -0.015389  -1.968807   0.017243  -0.760099   0.007349   0.220984   0.377526   3.256257   0.139019   0.178462   0.029345   1.178808   0.000965   0.003711  -1.070047  -0.263946  -0.127265  -0.068707  -0.000128  -0.000059  -0.115601   0.113978   0.258895   1.956864  -0.002300   0.005142  -1.451655   0.311471   0.128302   0.249463  -0.000588   0.001326
 -2.376818   0.927507   3.974557  -1.130684   0.399504  -0.243211   1.425167  -0.045680   0.231118   0.467709  -0.363289   0.085765  -0.486099   0.277810   0.235104   0.149593  -0.338811   1.641896   0.999608   0.419389   4.708199   0.042662   1.646785  -0.012617   0.518850  -0.635355  -5.297350   0.249724  -0.084707  -2.102675   1.193698  -0.136177  -4.542466   0.040267  -1.512786   0.013444   0.472240   0.501207   5.748875   0.314942   0.357113  -0.016569   2.436430   0.002929   0.007187  -2.068823  -0.508819  -0.250936  -0.179674  -0.000390  -0.000191  -0.163202   0.242971   0.641209   4.032990  -0.005900   0.010729  -2.799519   0.608577   0.258179   0.454196  -0.001143   0.002219
 -2.376944   0.928673   3.973886  -1.720133   0.617195  -0.353740   2.116780  -0.085970   0.328002   0.765889  -0.559685   0.113402  -0.686027   0.405489   0.359562   0.221258  -0.407175   3.307906   1.462089   0.734613   7.770091   0.066702   2.425617  -0.016620   0.789480  -0.680157  -6.680988   0.358717  -0.246435  -4.049223   1.727989  -0.332547  -7.387782   0.062920  -2.237109   0.017767   0.726521   0.466227   7.260276   0.466823   0.522743  -0.144580   3.629332   0.005275   0.009492  -3.000866  -0.736092  -0.370694  -0.286911  -0.000655  -0.000296  -0.179625   0.369730   1.103313   6.010486  -0.009752   0.015320  -4.055732   0.885230   0.387294   0.643655  -0.001673   0.002831
 -2.377134   0.929508   3.973266  -2.270785   0.826188  -0.447659   2.769859  -0.133403   0.400665   1.048736  -0.754567   0.117269  -0.873145   0.524195   0.478584   0.285254  -0.429532   5.234130   1.896238   1.104121  11.102459   0.087546   3.163519  -0.019188   1.057026  -0.641183  -7.396671   0.447376  -0.452778  -6.273309   2.211582  -0.583856 -10.341224   0.082305  -2.928252   0.020605   0.981748   0.327600   8.037874   0.586148   0.675422  -0.341857   4.737925   0.007581   0.010708  -3.872263  -0.947294  -0.486318  -0.393161  -0.000913  -0.000370  -0.177916   0.490825   1.625550   7.864620  -0.013386   0.018814  -5.229334   1.142072   0.514697   0.810277  -0.002101   0.003162
 -2.377367   0.929763   3.972726  -2.780322   1.022246  -0.528587   3.384185  -0.185375   0.453503   1.311960  -0.945150   0.106610  -1.048883   0.634466   0.587590   0.340767  -0.422698   7.309042   2.289807   1.507267  14.533228   0.103734   3.859662  -0.020526   1.319464  -0.548321  -7.619323   0.514292  -0.682818  -8.631300   2.645738  -0.872368 -13.300870   0.097200  -3.583754   0.022257   1.234631   0.123626   8.313470   0.676454   0.816619  -0.594522   5.764996   0.009633   0.011083  -4.687132  -1.143517  -0.597537  -0.497500  -0.001149  -0.000415  -0.161905   0.604828   2.193372   9.599850  -0.016537   0.021336  -6.326108   1.380264   0.639680   0.955941  -0.002410   0.003281
 -2.377607   0.929250   3.972283  -3.250766   1.203170  -0.600621   3.960471  -0.240174   0.495422   1.555932  -1.129927   0.094394  -1.213384   0.736963   0.684860   0.388969  -0.400669   9.464178   2.631658   1.919571  17.893790   0.114744   4.514138  -0.020818   1.573980  -0.422118  -7.474795   0.560607  -0.920277 -11.029677   3.033112  -1.182976 -16.203811   0.107363  -4.202423   0.022981   1.481243  -0.118102   8.257156   0.742872   0.947839  -0.891639   6.717106   0.011345   0.010853  -5.449014  -1.325760  -0.704165  -0.598465  -0.001354  -0.000435  -0.133069   0.711142   2.792945  11.224503  -0.019055   0.023021  -7.351010   1.600989   0.761665   1.083861  -0.002604   0.003254
 -2.377847   0.927278   3.971081  -3.358880   1.313822  -0.735423   4.354954  -0.246041   0.616121   1.662820  -1.278713   0.094306  -1.523264   0.690023   0.673779   0.563519  -0.177882  11.060192   3.000068   2.261005  20.938807   0.118615   5.160277  -0.022413   1.722794  -0.282148  -6.312719   0.598898  -1.214973 -12.691704   3.123558  -1.440941 -19.091155   0.108998  -4.767510   0.021968   1.614318  -0.405883   7.252180   0.132906   0.842383  -1.097333   8.314018   0.014246   0.007602  -6.249635  -1.610711  -0.618724  -0.500769  -0.000848  -0.000600  -0.455028   0.863986   3.413202  12.240065  -0.018489   0.022074  -8.226263   1.921666   0.878760   1.262438  -0.002931   0.003632
 -2.378070   0.924079   3.969690  -3.432306   1.476463  -0.872862   4.776347  -0.266349   0.746125   1.760889  -1.425863   0.107359  -1.825663   0.639522   0.657315   0.703321   0.076589  12.349884   3.318602   2.619705  23.642920   0.116983   5.771910  -0.023446   1.871484  -0.117471  -5.270790   0.605446  -1.530342 -14.032741   3.186850  -1.706559 -21.648847   0.106059  -5.303079   0.020951   1.732106  -0.706674   6.354919  -0.474129   0.725943  -1.270988   9.856538   0.015930   0.005453  -6.990473  -1.881522  -0.543227  -0.388898  -0.000431  -0.000721  -0.847803   0.996683   3.995292  13.064611  -0.017044   0.020885  -9.050207   2.219280   0.993385   1.418935  -0.003009   0.003835
 -2.378272   0.919787   3.968263  -3.493448   1.667219  -1.004449   5.203009  -0.283824   0.876615   1.866709  -1.563648   0.129004  -2.102523   0.592209   0.641643   0.814261   0.335914  13.416452   3.592976   2.979377  26.067615   0.112021   6.349266  -0.023883   2.017050   0.067326  -4.466743   0.590056  -1.843789 -15.140260   3.229536  -1.967279 -23.932150   0.100416  -5.808711   0.019781   1.846745  -1.018680   5.697880  -1.029411   0.619027  -1.423782  11.301341   0.016638   0.004177  -7.681060  -2.134787  -0.476175  -0.282200  -0.000128  -0.000759  -1.281240   1.114951   4.529821  13.788178  -0.015302   0.019623  -9.822113   2.494930   1.104595   1.559623  -0.002938   0.003902
 -2.378453   0.914496   3.966879  -3.546625   1.868731  -1.129078   5.621588  -0.291928   1.005775   1.976693  -1.686446   0.156727  -2.355326   0.548371   0.627026   0.904309   0.587391  14.313414   3.830964   3.328795  28.259078   0.105099   6.891310  -0.023767   2.157340   0.257753  -3.858119   0.562903  -2.139194 -16.070040   3.258094  -2.211674 -25.988081   0.093230  -6.282239   0.018412   1.956455  -1.325157   5.239047  -1.528600   0.521302  -1.558121  12.653011   0.016642   0.003382  -8.325321  -2.371409  -0.416467  -0.182906   0.000083  -0.000748  -1.736424   1.220479   5.016594  14.437370  -0.013493   0.018284 -10.544180   2.750271   1.212021   1.688353  -0.002780   0.003866
